# xmcd CD database file
#
# Track frame offsets:
#	150
#	29613
#	44671
#	65086
#	86641
#	108615
#	125883
#	150637
#	175021
#
# Disc length: 2955 seconds
#
# Revision: 0
# Processed by: cddbd v1.5.2PL0 Copyright (c) Steve Scherf et al.
# Submitted via: CDex 1.70beta2
#
DISCID=820b8909
DTITLE=Colin Lake - Wax Wane
DYEAR=2007
DGENRE=Blues
TTITLE0=Best of Me
TTITLE1=Boomer's Story
TTITLE2=Ady's Song
TTITLE3=Fixin' to Die
TTITLE4=Big Sky Country
TTITLE5=Burn You Down
TTITLE6=K.O.
TTITLE7=Nobody's Man
TTITLE8=All Comin' Down
EXTD=YEAR: 2007
EXTT0=
EXTT1=
EXTT2=
EXTT3=
EXTT4=
EXTT5=
EXTT6=
EXTT7=
EXTT8=
PLAYORDER=
